<?xml version="1.0" encoding="utf-8"?>
<!-- Generator: Adobe Illustrator 16.0.0, SVG Export Plug-In . SVG Version: 6.00 Build 0)  -->
<!DOCTYPE svg PUBLIC "-//W3C//DTD SVG 1.1//EN" "http://www.w3.org/Graphics/SVG/1.1/DTD/svg11.dtd">
<svg version="1.1" id="Layer_1" xmlns="http://www.w3.org/2000/svg" xmlns:xlink="http://www.w3.org/1999/xlink" x="0px" y="0px"
	 width="841.89px" height="595.28px" viewBox="0 0 841.89 595.28" enable-background="new 0 0 841.89 595.28" xml:space="preserve">
<path fill="none" d="M449.389,346.965c-0.336-0.416-0.654-0.848-1.01-1.248c-0.23-0.263-0.438-0.543-0.676-0.798
	c-3.232-3.45-7.061-6.194-11.488-8.222c-4.43-2.026-9.197-3.044-14.301-3.044c-5.106,0-9.875,1.018-14.305,3.044
	c-4.434,2.027-8.265,4.771-11.49,8.222c-3.226,3.453-5.781,7.474-7.659,12.057c-1.878,4.578-2.815,9.42-2.815,14.526
	c0,5.11,0.938,9.954,2.815,14.529c1.878,4.585,4.434,8.638,7.659,12.171c3.226,3.529,7.057,6.308,11.49,8.333
	c4.43,2.026,9.198,3.039,14.305,3.039c2.223,0,4.375-0.207,6.471-0.593c0.105-0.02,0.213-0.033,0.318-0.054
	c2.604-0.504,5.109-1.291,7.512-2.393c4.428-2.025,8.256-4.804,11.488-8.333c3.225-3.533,5.742-7.586,7.545-12.171
	c1.801-4.575,2.705-9.419,2.705-14.529c0-5.106-0.904-9.948-2.705-14.526C453.785,353.25,451.801,349.938,449.389,346.965z"/>
<path fill="#660099" d="M308.576,352.433c0-34.836,53.59-117.652,69.698-141.759c0.527,17.973,5.628,38.298,15.52,58.201
	c3.705,7.451,7.873,14.383,12.362,20.754c0.121-0.023,0.24-0.055,0.361-0.077c4.963-0.912,10.056-1.388,15.283-1.388
	c4.598,0,9.09,0.368,13.485,1.072c6.037,0.966,11.883,2.591,17.533,4.885c0.178,0.071,0.354,0.147,0.531,0.219
	c-9.227-7.316-18.195-16.18-26.576-26.379c-10.009-12.183-19.183-26.263-26.953-41.896c-14.069-28.306-21.321-57.211-22.073-82.771
	c-22.907,34.282-99.124,152.064-99.124,201.608c0,56.645,44.613,102.859,100.618,105.446c1.642,0.076,3.291,0.125,4.953,0.125
	c1.659,0,3.309-0.049,4.951-0.125c1.354-0.069,2.694-0.18,4.032-0.304c-1.31-0.483-2.61-0.997-3.899-1.551
	c-1.305-0.562-2.522-1.219-3.785-1.833c-8.606-4.167-16.274-9.448-22.877-15.983c-2.653-2.625-5.101-5.429-7.364-8.384
	c-0.331-0.435-0.632-0.895-0.956-1.335C327.455,409.783,308.576,383.322,308.576,352.433z"/>
<path fill="#47076D" d="M338.107,371.614c0-11.476,2.188-22.273,6.574-32.403c4.386-10.12,10.363-18.966,17.936-26.542
	c7.568-7.567,16.459-13.547,26.662-17.929c5.439-2.337,11.072-4.021,16.877-5.111c-4.489-6.371-8.657-13.303-12.362-20.754
	c-9.892-19.903-14.992-40.229-15.52-58.201c-16.108,24.106-69.698,106.923-69.698,141.759c0,30.89,18.879,57.351,45.721,68.526
	c-3.766-5.135-6.992-10.721-9.615-16.826C340.295,393.936,338.107,383.092,338.107,371.614z"/>
<path fill="#47076D" d="M494.67,340.884c-4.146-9.638-9.795-17.998-16.949-25.082c-7.154-7.077-15.553-12.688-25.191-16.828
	c-0.471-0.204-0.943-0.394-1.42-0.585c-5.338-2.167-10.861-3.703-16.566-4.616c-4.154-0.665-8.396-1.014-12.743-1.014
	c-4.308,0-8.512,0.362-12.627,1.021c-0.604,0.096-1.213,0.181-1.813,0.291c-5.607,1.027-11.042,2.647-16.29,4.902
	c-9.642,4.141-18.042,9.791-25.194,16.941c-7.155,7.159-12.804,15.519-16.947,25.081c-4.145,9.571-6.212,19.774-6.212,30.618
	c0,10.846,2.067,21.093,6.212,30.729c2.691,6.265,6.026,11.976,9.989,17.16c1.135,1.481,2.321,2.919,3.556,4.315
	c1.094,1.237,2.225,2.442,3.402,3.607c6.239,6.175,13.484,11.166,21.617,15.104c1.193,0.579,2.345,1.201,3.577,1.731
	c2.356,1.013,4.752,1.897,7.181,2.662c7.506,2.365,15.355,3.551,23.55,3.551c10.844,0,21.088-2.073,30.729-6.213
	c9.639-4.146,18.037-9.754,25.191-16.835c7.154-7.078,12.803-15.439,16.949-25.083c4.141-9.636,6.213-19.883,6.213-30.729
	C500.883,360.771,498.811,350.527,494.67,340.884z M455.248,386.031c-1.803,4.585-4.32,8.638-7.545,12.171
	c-3.232,3.529-7.061,6.308-11.488,8.333c-2.402,1.102-4.908,1.889-7.512,2.393c-0.105,0.021-0.213,0.034-0.318,0.054
	c-2.096,0.386-4.248,0.593-6.471,0.593c-5.106,0-9.875-1.013-14.305-3.039c-4.434-2.025-8.265-4.804-11.49-8.333
	c-3.226-3.533-5.781-7.586-7.659-12.171c-1.878-4.575-2.815-9.419-2.815-14.529c0-5.106,0.938-9.948,2.815-14.526
	c1.878-4.583,4.434-8.604,7.659-12.057c3.226-3.45,7.057-6.194,11.49-8.222c4.43-2.026,9.198-3.044,14.305-3.044
	c5.104,0,9.872,1.018,14.301,3.044c4.428,2.027,8.256,4.771,11.488,8.222c0.238,0.255,0.445,0.535,0.676,0.798
	c0.355,0.4,0.674,0.832,1.01,1.248c2.412,2.974,4.396,6.285,5.859,10.011c1.801,4.578,2.705,9.42,2.705,14.526
	C457.953,376.612,457.049,381.456,455.248,386.031z"/>
</svg>
